<mxfile host="app.diagrams.net" modified="2024-03-13T16:40:53.062Z" agent="Mozilla/5.0 (Windows NT 10.0; Win64; x64) AppleWebKit/537.36 (KHTML, like Gecko) Chrome/122.0.0.0 Safari/537.36" etag="POp6Wnd5lTaiUqrhzP-F" version="24.0.5" type="github">
  <diagram name="Page-1" id="IihxDoKMmYqEm5pNbVJN">
    <mxGraphModel dx="794" dy="458" grid="1" gridSize="10" guides="1" tooltips="1" connect="1" arrows="1" fold="1" page="1" pageScale="1" pageWidth="827" pageHeight="1169" math="0" shadow="0">
      <root>
        <mxCell id="0" />
        <mxCell id="1" parent="0" />
        <mxCell id="8icQrBkEeKGjX3cVh9VP-3" value="roles" style="shape=table;startSize=30;container=1;collapsible=1;childLayout=tableLayout;fixedRows=1;rowLines=0;fontStyle=1;align=center;resizeLast=1;html=1;" vertex="1" parent="1">
          <mxGeometry x="90" y="40" width="180" height="90" as="geometry" />
        </mxCell>
        <mxCell id="8icQrBkEeKGjX3cVh9VP-4" value="" style="shape=tableRow;horizontal=0;startSize=0;swimlaneHead=0;swimlaneBody=0;fillColor=none;collapsible=0;dropTarget=0;points=[[0,0.5],[1,0.5]];portConstraint=eastwest;top=0;left=0;right=0;bottom=1;" vertex="1" parent="8icQrBkEeKGjX3cVh9VP-3">
          <mxGeometry y="30" width="180" height="30" as="geometry" />
        </mxCell>
        <mxCell id="8icQrBkEeKGjX3cVh9VP-5" value="PK" style="shape=partialRectangle;connectable=0;fillColor=none;top=0;left=0;bottom=0;right=0;fontStyle=1;overflow=hidden;whiteSpace=wrap;html=1;" vertex="1" parent="8icQrBkEeKGjX3cVh9VP-4">
          <mxGeometry width="30" height="30" as="geometry">
            <mxRectangle width="30" height="30" as="alternateBounds" />
          </mxGeometry>
        </mxCell>
        <mxCell id="8icQrBkEeKGjX3cVh9VP-6" value="role_id" style="shape=partialRectangle;connectable=0;fillColor=none;top=0;left=0;bottom=0;right=0;align=left;spacingLeft=6;fontStyle=5;overflow=hidden;whiteSpace=wrap;html=1;" vertex="1" parent="8icQrBkEeKGjX3cVh9VP-4">
          <mxGeometry x="30" width="150" height="30" as="geometry">
            <mxRectangle width="150" height="30" as="alternateBounds" />
          </mxGeometry>
        </mxCell>
        <mxCell id="8icQrBkEeKGjX3cVh9VP-7" value="" style="shape=tableRow;horizontal=0;startSize=0;swimlaneHead=0;swimlaneBody=0;fillColor=none;collapsible=0;dropTarget=0;points=[[0,0.5],[1,0.5]];portConstraint=eastwest;top=0;left=0;right=0;bottom=0;" vertex="1" parent="8icQrBkEeKGjX3cVh9VP-3">
          <mxGeometry y="60" width="180" height="30" as="geometry" />
        </mxCell>
        <mxCell id="8icQrBkEeKGjX3cVh9VP-8" value="" style="shape=partialRectangle;connectable=0;fillColor=none;top=0;left=0;bottom=0;right=0;editable=1;overflow=hidden;whiteSpace=wrap;html=1;" vertex="1" parent="8icQrBkEeKGjX3cVh9VP-7">
          <mxGeometry width="30" height="30" as="geometry">
            <mxRectangle width="30" height="30" as="alternateBounds" />
          </mxGeometry>
        </mxCell>
        <mxCell id="8icQrBkEeKGjX3cVh9VP-9" value="name" style="shape=partialRectangle;connectable=0;fillColor=none;top=0;left=0;bottom=0;right=0;align=left;spacingLeft=6;overflow=hidden;whiteSpace=wrap;html=1;" vertex="1" parent="8icQrBkEeKGjX3cVh9VP-7">
          <mxGeometry x="30" width="150" height="30" as="geometry">
            <mxRectangle width="150" height="30" as="alternateBounds" />
          </mxGeometry>
        </mxCell>
        <mxCell id="8icQrBkEeKGjX3cVh9VP-16" value="projects" style="shape=table;startSize=30;container=1;collapsible=1;childLayout=tableLayout;fixedRows=1;rowLines=0;fontStyle=1;align=center;resizeLast=1;html=1;" vertex="1" parent="1">
          <mxGeometry x="30" y="150" width="180" height="90" as="geometry" />
        </mxCell>
        <mxCell id="8icQrBkEeKGjX3cVh9VP-17" value="" style="shape=tableRow;horizontal=0;startSize=0;swimlaneHead=0;swimlaneBody=0;fillColor=none;collapsible=0;dropTarget=0;points=[[0,0.5],[1,0.5]];portConstraint=eastwest;top=0;left=0;right=0;bottom=1;" vertex="1" parent="8icQrBkEeKGjX3cVh9VP-16">
          <mxGeometry y="30" width="180" height="30" as="geometry" />
        </mxCell>
        <mxCell id="8icQrBkEeKGjX3cVh9VP-18" value="PK" style="shape=partialRectangle;connectable=0;fillColor=none;top=0;left=0;bottom=0;right=0;fontStyle=1;overflow=hidden;whiteSpace=wrap;html=1;" vertex="1" parent="8icQrBkEeKGjX3cVh9VP-17">
          <mxGeometry width="30" height="30" as="geometry">
            <mxRectangle width="30" height="30" as="alternateBounds" />
          </mxGeometry>
        </mxCell>
        <mxCell id="8icQrBkEeKGjX3cVh9VP-19" value="project_id" style="shape=partialRectangle;connectable=0;fillColor=none;top=0;left=0;bottom=0;right=0;align=left;spacingLeft=6;fontStyle=5;overflow=hidden;whiteSpace=wrap;html=1;" vertex="1" parent="8icQrBkEeKGjX3cVh9VP-17">
          <mxGeometry x="30" width="150" height="30" as="geometry">
            <mxRectangle width="150" height="30" as="alternateBounds" />
          </mxGeometry>
        </mxCell>
        <mxCell id="8icQrBkEeKGjX3cVh9VP-20" value="" style="shape=tableRow;horizontal=0;startSize=0;swimlaneHead=0;swimlaneBody=0;fillColor=none;collapsible=0;dropTarget=0;points=[[0,0.5],[1,0.5]];portConstraint=eastwest;top=0;left=0;right=0;bottom=0;" vertex="1" parent="8icQrBkEeKGjX3cVh9VP-16">
          <mxGeometry y="60" width="180" height="30" as="geometry" />
        </mxCell>
        <mxCell id="8icQrBkEeKGjX3cVh9VP-21" value="" style="shape=partialRectangle;connectable=0;fillColor=none;top=0;left=0;bottom=0;right=0;editable=1;overflow=hidden;whiteSpace=wrap;html=1;" vertex="1" parent="8icQrBkEeKGjX3cVh9VP-20">
          <mxGeometry width="30" height="30" as="geometry">
            <mxRectangle width="30" height="30" as="alternateBounds" />
          </mxGeometry>
        </mxCell>
        <mxCell id="8icQrBkEeKGjX3cVh9VP-22" value="name" style="shape=partialRectangle;connectable=0;fillColor=none;top=0;left=0;bottom=0;right=0;align=left;spacingLeft=6;overflow=hidden;whiteSpace=wrap;html=1;" vertex="1" parent="8icQrBkEeKGjX3cVh9VP-20">
          <mxGeometry x="30" width="150" height="30" as="geometry">
            <mxRectangle width="150" height="30" as="alternateBounds" />
          </mxGeometry>
        </mxCell>
        <mxCell id="8icQrBkEeKGjX3cVh9VP-29" value="permissions" style="shape=table;startSize=30;container=1;collapsible=1;childLayout=tableLayout;fixedRows=1;rowLines=0;fontStyle=1;align=center;resizeLast=1;html=1;" vertex="1" parent="1">
          <mxGeometry x="90" y="260" width="180" height="90" as="geometry" />
        </mxCell>
        <mxCell id="8icQrBkEeKGjX3cVh9VP-30" value="" style="shape=tableRow;horizontal=0;startSize=0;swimlaneHead=0;swimlaneBody=0;fillColor=none;collapsible=0;dropTarget=0;points=[[0,0.5],[1,0.5]];portConstraint=eastwest;top=0;left=0;right=0;bottom=1;" vertex="1" parent="8icQrBkEeKGjX3cVh9VP-29">
          <mxGeometry y="30" width="180" height="30" as="geometry" />
        </mxCell>
        <mxCell id="8icQrBkEeKGjX3cVh9VP-31" value="PK" style="shape=partialRectangle;connectable=0;fillColor=none;top=0;left=0;bottom=0;right=0;fontStyle=1;overflow=hidden;whiteSpace=wrap;html=1;" vertex="1" parent="8icQrBkEeKGjX3cVh9VP-30">
          <mxGeometry width="30" height="30" as="geometry">
            <mxRectangle width="30" height="30" as="alternateBounds" />
          </mxGeometry>
        </mxCell>
        <mxCell id="8icQrBkEeKGjX3cVh9VP-32" value="permission_id" style="shape=partialRectangle;connectable=0;fillColor=none;top=0;left=0;bottom=0;right=0;align=left;spacingLeft=6;fontStyle=5;overflow=hidden;whiteSpace=wrap;html=1;" vertex="1" parent="8icQrBkEeKGjX3cVh9VP-30">
          <mxGeometry x="30" width="150" height="30" as="geometry">
            <mxRectangle width="150" height="30" as="alternateBounds" />
          </mxGeometry>
        </mxCell>
        <mxCell id="8icQrBkEeKGjX3cVh9VP-33" value="" style="shape=tableRow;horizontal=0;startSize=0;swimlaneHead=0;swimlaneBody=0;fillColor=none;collapsible=0;dropTarget=0;points=[[0,0.5],[1,0.5]];portConstraint=eastwest;top=0;left=0;right=0;bottom=0;" vertex="1" parent="8icQrBkEeKGjX3cVh9VP-29">
          <mxGeometry y="60" width="180" height="30" as="geometry" />
        </mxCell>
        <mxCell id="8icQrBkEeKGjX3cVh9VP-34" value="" style="shape=partialRectangle;connectable=0;fillColor=none;top=0;left=0;bottom=0;right=0;editable=1;overflow=hidden;whiteSpace=wrap;html=1;" vertex="1" parent="8icQrBkEeKGjX3cVh9VP-33">
          <mxGeometry width="30" height="30" as="geometry">
            <mxRectangle width="30" height="30" as="alternateBounds" />
          </mxGeometry>
        </mxCell>
        <mxCell id="8icQrBkEeKGjX3cVh9VP-35" value="name" style="shape=partialRectangle;connectable=0;fillColor=none;top=0;left=0;bottom=0;right=0;align=left;spacingLeft=6;overflow=hidden;whiteSpace=wrap;html=1;" vertex="1" parent="8icQrBkEeKGjX3cVh9VP-33">
          <mxGeometry x="30" width="150" height="30" as="geometry">
            <mxRectangle width="150" height="30" as="alternateBounds" />
          </mxGeometry>
        </mxCell>
        <mxCell id="8icQrBkEeKGjX3cVh9VP-42" value="roles_projects_permissions" style="shape=table;startSize=30;container=1;collapsible=1;childLayout=tableLayout;fixedRows=1;rowLines=0;fontStyle=1;align=center;resizeLast=1;html=1;" vertex="1" parent="1">
          <mxGeometry x="330" y="90" width="230" height="150" as="geometry" />
        </mxCell>
        <mxCell id="8icQrBkEeKGjX3cVh9VP-43" value="" style="shape=tableRow;horizontal=0;startSize=0;swimlaneHead=0;swimlaneBody=0;fillColor=none;collapsible=0;dropTarget=0;points=[[0,0.5],[1,0.5]];portConstraint=eastwest;top=0;left=0;right=0;bottom=1;" vertex="1" parent="8icQrBkEeKGjX3cVh9VP-42">
          <mxGeometry y="30" width="230" height="30" as="geometry" />
        </mxCell>
        <mxCell id="8icQrBkEeKGjX3cVh9VP-44" value="PK" style="shape=partialRectangle;connectable=0;fillColor=none;top=0;left=0;bottom=0;right=0;fontStyle=1;overflow=hidden;whiteSpace=wrap;html=1;" vertex="1" parent="8icQrBkEeKGjX3cVh9VP-43">
          <mxGeometry width="30" height="30" as="geometry">
            <mxRectangle width="30" height="30" as="alternateBounds" />
          </mxGeometry>
        </mxCell>
        <mxCell id="8icQrBkEeKGjX3cVh9VP-45" value="role_project_permission_id" style="shape=partialRectangle;connectable=0;fillColor=none;top=0;left=0;bottom=0;right=0;align=left;spacingLeft=6;fontStyle=5;overflow=hidden;whiteSpace=wrap;html=1;" vertex="1" parent="8icQrBkEeKGjX3cVh9VP-43">
          <mxGeometry x="30" width="200" height="30" as="geometry">
            <mxRectangle width="200" height="30" as="alternateBounds" />
          </mxGeometry>
        </mxCell>
        <mxCell id="8icQrBkEeKGjX3cVh9VP-46" value="" style="shape=tableRow;horizontal=0;startSize=0;swimlaneHead=0;swimlaneBody=0;fillColor=none;collapsible=0;dropTarget=0;points=[[0,0.5],[1,0.5]];portConstraint=eastwest;top=0;left=0;right=0;bottom=0;" vertex="1" parent="8icQrBkEeKGjX3cVh9VP-42">
          <mxGeometry y="60" width="230" height="30" as="geometry" />
        </mxCell>
        <mxCell id="8icQrBkEeKGjX3cVh9VP-47" value="FK" style="shape=partialRectangle;connectable=0;fillColor=none;top=0;left=0;bottom=0;right=0;editable=1;overflow=hidden;whiteSpace=wrap;html=1;" vertex="1" parent="8icQrBkEeKGjX3cVh9VP-46">
          <mxGeometry width="30" height="30" as="geometry">
            <mxRectangle width="30" height="30" as="alternateBounds" />
          </mxGeometry>
        </mxCell>
        <mxCell id="8icQrBkEeKGjX3cVh9VP-48" value="role_id" style="shape=partialRectangle;connectable=0;fillColor=none;top=0;left=0;bottom=0;right=0;align=left;spacingLeft=6;overflow=hidden;whiteSpace=wrap;html=1;" vertex="1" parent="8icQrBkEeKGjX3cVh9VP-46">
          <mxGeometry x="30" width="200" height="30" as="geometry">
            <mxRectangle width="200" height="30" as="alternateBounds" />
          </mxGeometry>
        </mxCell>
        <mxCell id="8icQrBkEeKGjX3cVh9VP-49" value="" style="shape=tableRow;horizontal=0;startSize=0;swimlaneHead=0;swimlaneBody=0;fillColor=none;collapsible=0;dropTarget=0;points=[[0,0.5],[1,0.5]];portConstraint=eastwest;top=0;left=0;right=0;bottom=0;" vertex="1" parent="8icQrBkEeKGjX3cVh9VP-42">
          <mxGeometry y="90" width="230" height="30" as="geometry" />
        </mxCell>
        <mxCell id="8icQrBkEeKGjX3cVh9VP-50" value="FK" style="shape=partialRectangle;connectable=0;fillColor=none;top=0;left=0;bottom=0;right=0;editable=1;overflow=hidden;whiteSpace=wrap;html=1;" vertex="1" parent="8icQrBkEeKGjX3cVh9VP-49">
          <mxGeometry width="30" height="30" as="geometry">
            <mxRectangle width="30" height="30" as="alternateBounds" />
          </mxGeometry>
        </mxCell>
        <mxCell id="8icQrBkEeKGjX3cVh9VP-51" value="project_id" style="shape=partialRectangle;connectable=0;fillColor=none;top=0;left=0;bottom=0;right=0;align=left;spacingLeft=6;overflow=hidden;whiteSpace=wrap;html=1;" vertex="1" parent="8icQrBkEeKGjX3cVh9VP-49">
          <mxGeometry x="30" width="200" height="30" as="geometry">
            <mxRectangle width="200" height="30" as="alternateBounds" />
          </mxGeometry>
        </mxCell>
        <mxCell id="8icQrBkEeKGjX3cVh9VP-68" value="" style="shape=tableRow;horizontal=0;startSize=0;swimlaneHead=0;swimlaneBody=0;fillColor=none;collapsible=0;dropTarget=0;points=[[0,0.5],[1,0.5]];portConstraint=eastwest;top=0;left=0;right=0;bottom=0;" vertex="1" parent="8icQrBkEeKGjX3cVh9VP-42">
          <mxGeometry y="120" width="230" height="30" as="geometry" />
        </mxCell>
        <mxCell id="8icQrBkEeKGjX3cVh9VP-69" value="FK" style="shape=partialRectangle;connectable=0;fillColor=none;top=0;left=0;bottom=0;right=0;editable=1;overflow=hidden;whiteSpace=wrap;html=1;" vertex="1" parent="8icQrBkEeKGjX3cVh9VP-68">
          <mxGeometry width="30" height="30" as="geometry">
            <mxRectangle width="30" height="30" as="alternateBounds" />
          </mxGeometry>
        </mxCell>
        <mxCell id="8icQrBkEeKGjX3cVh9VP-70" value="permission_id" style="shape=partialRectangle;connectable=0;fillColor=none;top=0;left=0;bottom=0;right=0;align=left;spacingLeft=6;overflow=hidden;whiteSpace=wrap;html=1;" vertex="1" parent="8icQrBkEeKGjX3cVh9VP-68">
          <mxGeometry x="30" width="200" height="30" as="geometry">
            <mxRectangle width="200" height="30" as="alternateBounds" />
          </mxGeometry>
        </mxCell>
        <mxCell id="8icQrBkEeKGjX3cVh9VP-55" value="user_roles_projects" style="shape=table;startSize=30;container=1;collapsible=1;childLayout=tableLayout;fixedRows=1;rowLines=0;fontStyle=1;align=center;resizeLast=1;html=1;" vertex="1" parent="1">
          <mxGeometry x="620" y="90" width="200" height="120" as="geometry" />
        </mxCell>
        <mxCell id="8icQrBkEeKGjX3cVh9VP-56" value="" style="shape=tableRow;horizontal=0;startSize=0;swimlaneHead=0;swimlaneBody=0;fillColor=none;collapsible=0;dropTarget=0;points=[[0,0.5],[1,0.5]];portConstraint=eastwest;top=0;left=0;right=0;bottom=1;" vertex="1" parent="8icQrBkEeKGjX3cVh9VP-55">
          <mxGeometry y="30" width="200" height="30" as="geometry" />
        </mxCell>
        <mxCell id="8icQrBkEeKGjX3cVh9VP-57" value="PK" style="shape=partialRectangle;connectable=0;fillColor=none;top=0;left=0;bottom=0;right=0;fontStyle=1;overflow=hidden;whiteSpace=wrap;html=1;" vertex="1" parent="8icQrBkEeKGjX3cVh9VP-56">
          <mxGeometry width="30" height="30" as="geometry">
            <mxRectangle width="30" height="30" as="alternateBounds" />
          </mxGeometry>
        </mxCell>
        <mxCell id="8icQrBkEeKGjX3cVh9VP-58" value="UniqueID" style="shape=partialRectangle;connectable=0;fillColor=none;top=0;left=0;bottom=0;right=0;align=left;spacingLeft=6;fontStyle=5;overflow=hidden;whiteSpace=wrap;html=1;" vertex="1" parent="8icQrBkEeKGjX3cVh9VP-56">
          <mxGeometry x="30" width="170" height="30" as="geometry">
            <mxRectangle width="170" height="30" as="alternateBounds" />
          </mxGeometry>
        </mxCell>
        <mxCell id="8icQrBkEeKGjX3cVh9VP-59" value="" style="shape=tableRow;horizontal=0;startSize=0;swimlaneHead=0;swimlaneBody=0;fillColor=none;collapsible=0;dropTarget=0;points=[[0,0.5],[1,0.5]];portConstraint=eastwest;top=0;left=0;right=0;bottom=0;" vertex="1" parent="8icQrBkEeKGjX3cVh9VP-55">
          <mxGeometry y="60" width="200" height="30" as="geometry" />
        </mxCell>
        <mxCell id="8icQrBkEeKGjX3cVh9VP-60" value="FK" style="shape=partialRectangle;connectable=0;fillColor=none;top=0;left=0;bottom=0;right=0;editable=1;overflow=hidden;whiteSpace=wrap;html=1;" vertex="1" parent="8icQrBkEeKGjX3cVh9VP-59">
          <mxGeometry width="30" height="30" as="geometry">
            <mxRectangle width="30" height="30" as="alternateBounds" />
          </mxGeometry>
        </mxCell>
        <mxCell id="8icQrBkEeKGjX3cVh9VP-61" value="role_project_permission_id" style="shape=partialRectangle;connectable=0;fillColor=none;top=0;left=0;bottom=0;right=0;align=left;spacingLeft=6;overflow=hidden;whiteSpace=wrap;html=1;" vertex="1" parent="8icQrBkEeKGjX3cVh9VP-59">
          <mxGeometry x="30" width="170" height="30" as="geometry">
            <mxRectangle width="170" height="30" as="alternateBounds" />
          </mxGeometry>
        </mxCell>
        <mxCell id="8icQrBkEeKGjX3cVh9VP-62" value="" style="shape=tableRow;horizontal=0;startSize=0;swimlaneHead=0;swimlaneBody=0;fillColor=none;collapsible=0;dropTarget=0;points=[[0,0.5],[1,0.5]];portConstraint=eastwest;top=0;left=0;right=0;bottom=0;" vertex="1" parent="8icQrBkEeKGjX3cVh9VP-55">
          <mxGeometry y="90" width="200" height="30" as="geometry" />
        </mxCell>
        <mxCell id="8icQrBkEeKGjX3cVh9VP-63" value="FK" style="shape=partialRectangle;connectable=0;fillColor=none;top=0;left=0;bottom=0;right=0;editable=1;overflow=hidden;whiteSpace=wrap;html=1;" vertex="1" parent="8icQrBkEeKGjX3cVh9VP-62">
          <mxGeometry width="30" height="30" as="geometry">
            <mxRectangle width="30" height="30" as="alternateBounds" />
          </mxGeometry>
        </mxCell>
        <mxCell id="8icQrBkEeKGjX3cVh9VP-64" value="user_id" style="shape=partialRectangle;connectable=0;fillColor=none;top=0;left=0;bottom=0;right=0;align=left;spacingLeft=6;overflow=hidden;whiteSpace=wrap;html=1;" vertex="1" parent="8icQrBkEeKGjX3cVh9VP-62">
          <mxGeometry x="30" width="170" height="30" as="geometry">
            <mxRectangle width="170" height="30" as="alternateBounds" />
          </mxGeometry>
        </mxCell>
        <mxCell id="8icQrBkEeKGjX3cVh9VP-72" value="" style="edgeStyle=entityRelationEdgeStyle;fontSize=12;html=1;endArrow=ERoneToMany;rounded=0;exitX=1;exitY=0.5;exitDx=0;exitDy=0;entryX=0;entryY=0.5;entryDx=0;entryDy=0;" edge="1" parent="1" source="8icQrBkEeKGjX3cVh9VP-17" target="8icQrBkEeKGjX3cVh9VP-49">
          <mxGeometry width="100" height="100" relative="1" as="geometry">
            <mxPoint x="330" y="290" as="sourcePoint" />
            <mxPoint x="430" y="190" as="targetPoint" />
            <Array as="points">
              <mxPoint x="230" y="280" />
              <mxPoint x="360" y="220" />
              <mxPoint x="270" y="230" />
              <mxPoint x="420" y="280" />
              <mxPoint x="240" y="315" />
              <mxPoint x="240" y="250" />
              <mxPoint x="340" y="200" />
              <mxPoint x="350" y="210" />
            </Array>
          </mxGeometry>
        </mxCell>
        <mxCell id="8icQrBkEeKGjX3cVh9VP-73" value="" style="edgeStyle=entityRelationEdgeStyle;fontSize=12;html=1;endArrow=ERoneToMany;rounded=0;exitX=1;exitY=0.5;exitDx=0;exitDy=0;entryX=0;entryY=0.5;entryDx=0;entryDy=0;" edge="1" parent="1" source="8icQrBkEeKGjX3cVh9VP-4" target="8icQrBkEeKGjX3cVh9VP-46">
          <mxGeometry width="100" height="100" relative="1" as="geometry">
            <mxPoint x="330" y="290" as="sourcePoint" />
            <mxPoint x="430" y="190" as="targetPoint" />
          </mxGeometry>
        </mxCell>
        <mxCell id="8icQrBkEeKGjX3cVh9VP-75" value="" style="edgeStyle=entityRelationEdgeStyle;fontSize=12;html=1;endArrow=ERoneToMany;rounded=0;exitX=1;exitY=0.5;exitDx=0;exitDy=0;entryX=0;entryY=0.5;entryDx=0;entryDy=0;" edge="1" parent="1" source="8icQrBkEeKGjX3cVh9VP-30" target="8icQrBkEeKGjX3cVh9VP-68">
          <mxGeometry width="100" height="100" relative="1" as="geometry">
            <mxPoint x="330" y="290" as="sourcePoint" />
            <mxPoint x="430" y="190" as="targetPoint" />
          </mxGeometry>
        </mxCell>
        <mxCell id="8icQrBkEeKGjX3cVh9VP-76" value="" style="edgeStyle=entityRelationEdgeStyle;fontSize=12;html=1;endArrow=ERoneToMany;rounded=0;exitX=1;exitY=0.5;exitDx=0;exitDy=0;entryX=0;entryY=0.5;entryDx=0;entryDy=0;" edge="1" parent="1" source="8icQrBkEeKGjX3cVh9VP-43" target="8icQrBkEeKGjX3cVh9VP-59">
          <mxGeometry width="100" height="100" relative="1" as="geometry">
            <mxPoint x="330" y="330" as="sourcePoint" />
            <mxPoint x="430" y="230" as="targetPoint" />
          </mxGeometry>
        </mxCell>
        <mxCell id="8icQrBkEeKGjX3cVh9VP-77" value="user" style="shape=table;startSize=30;container=1;collapsible=1;childLayout=tableLayout;fixedRows=1;rowLines=0;fontStyle=1;align=center;resizeLast=1;html=1;" vertex="1" parent="1">
          <mxGeometry x="380" y="270" width="180" height="90" as="geometry" />
        </mxCell>
        <mxCell id="8icQrBkEeKGjX3cVh9VP-78" value="" style="shape=tableRow;horizontal=0;startSize=0;swimlaneHead=0;swimlaneBody=0;fillColor=none;collapsible=0;dropTarget=0;points=[[0,0.5],[1,0.5]];portConstraint=eastwest;top=0;left=0;right=0;bottom=1;" vertex="1" parent="8icQrBkEeKGjX3cVh9VP-77">
          <mxGeometry y="30" width="180" height="30" as="geometry" />
        </mxCell>
        <mxCell id="8icQrBkEeKGjX3cVh9VP-79" value="PK" style="shape=partialRectangle;connectable=0;fillColor=none;top=0;left=0;bottom=0;right=0;fontStyle=1;overflow=hidden;whiteSpace=wrap;html=1;" vertex="1" parent="8icQrBkEeKGjX3cVh9VP-78">
          <mxGeometry width="30" height="30" as="geometry">
            <mxRectangle width="30" height="30" as="alternateBounds" />
          </mxGeometry>
        </mxCell>
        <mxCell id="8icQrBkEeKGjX3cVh9VP-80" value="user_id" style="shape=partialRectangle;connectable=0;fillColor=none;top=0;left=0;bottom=0;right=0;align=left;spacingLeft=6;fontStyle=5;overflow=hidden;whiteSpace=wrap;html=1;" vertex="1" parent="8icQrBkEeKGjX3cVh9VP-78">
          <mxGeometry x="30" width="150" height="30" as="geometry">
            <mxRectangle width="150" height="30" as="alternateBounds" />
          </mxGeometry>
        </mxCell>
        <mxCell id="8icQrBkEeKGjX3cVh9VP-81" value="" style="shape=tableRow;horizontal=0;startSize=0;swimlaneHead=0;swimlaneBody=0;fillColor=none;collapsible=0;dropTarget=0;points=[[0,0.5],[1,0.5]];portConstraint=eastwest;top=0;left=0;right=0;bottom=0;" vertex="1" parent="8icQrBkEeKGjX3cVh9VP-77">
          <mxGeometry y="60" width="180" height="30" as="geometry" />
        </mxCell>
        <mxCell id="8icQrBkEeKGjX3cVh9VP-82" value="" style="shape=partialRectangle;connectable=0;fillColor=none;top=0;left=0;bottom=0;right=0;editable=1;overflow=hidden;whiteSpace=wrap;html=1;" vertex="1" parent="8icQrBkEeKGjX3cVh9VP-81">
          <mxGeometry width="30" height="30" as="geometry">
            <mxRectangle width="30" height="30" as="alternateBounds" />
          </mxGeometry>
        </mxCell>
        <mxCell id="8icQrBkEeKGjX3cVh9VP-83" value="more rows..." style="shape=partialRectangle;connectable=0;fillColor=none;top=0;left=0;bottom=0;right=0;align=left;spacingLeft=6;overflow=hidden;whiteSpace=wrap;html=1;" vertex="1" parent="8icQrBkEeKGjX3cVh9VP-81">
          <mxGeometry x="30" width="150" height="30" as="geometry">
            <mxRectangle width="150" height="30" as="alternateBounds" />
          </mxGeometry>
        </mxCell>
        <mxCell id="8icQrBkEeKGjX3cVh9VP-90" value="" style="edgeStyle=entityRelationEdgeStyle;fontSize=12;html=1;endArrow=ERoneToMany;rounded=0;exitX=1;exitY=0.5;exitDx=0;exitDy=0;entryX=0;entryY=0.5;entryDx=0;entryDy=0;" edge="1" parent="1" source="8icQrBkEeKGjX3cVh9VP-78" target="8icQrBkEeKGjX3cVh9VP-62">
          <mxGeometry width="100" height="100" relative="1" as="geometry">
            <mxPoint x="520" y="330" as="sourcePoint" />
            <mxPoint x="620" y="230" as="targetPoint" />
            <Array as="points">
              <mxPoint x="740" y="340" />
              <mxPoint x="690" y="380" />
            </Array>
          </mxGeometry>
        </mxCell>
      </root>
    </mxGraphModel>
  </diagram>
</mxfile>
